# xmcd
#
# Track frame offsets:
#	150
#	13070
#	23297
#	35163
#	47010
#	57628
#	70362
#	81308
#	92451
#	104182
#	116632
#	128639
#	139383
#	152893
#	173004
#
# Disc length: 2451
#
# Revision: 3
# Processed by: cddbd v1.5.1PL0 Copyright (c) Steve Scherf et al.
# Submitted via: audiograbber 1.80.04
# Normalized: r1:DSETVAR1,TDELIM( - ),TSWAP
#
DISCID=d109910f
DTITLE=Various Artist - Classic Country, 1960 - 1964, CD-2
DYEAR=1900
DGENRE=Country Classic
TTITLE0=Patsy Cline - I Fall To Pieces
TTITLE1=Faron Young - Hello Walls
TTITLE2=Jim Reeves - Welcome To My Worls
TTITLE3=Don Gibson - Sea Of Heartbreak
TTITLE4=George Hamilton IV - Abilene
TTITLE5=Bobby Bare - Detroit City
TTITLE6=Dave Dudley - Six Days On The Road
TTITLE7=Buck Owens - My Heart Skips A Beat
TTITLE8=George Jones - She Thinks I Still Care
TTITLE9=Roy Drusky - Three Hearts In A Tangle
TTITLE10=Skeeter Davis - The End Of The World
TTITLE11=Connie Smith - Once A Day
TTITLE12=Carl Butler - Don't Let Me Cross Over
TTITLE13=Marty Robbins - El Paso
TTITLE14=Everly Brothers - Cathy's Clown
EXTD=
EXTT0=
EXTT1=
EXTT2=
EXTT3=
EXTT4=
EXTT5=
EXTT6=
EXTT7=
EXTT8=
EXTT9=
EXTT10=
EXTT11=
EXTT12=
EXTT13=
EXTT14=
PLAYORDER=
